# xmcd
#
# Track frame offsets: 
#        182
#        14962
#        28940
#        42792
#        59112
#        73612
#        89140
#        101140
#        119265
#        135860
#        149445
#        167637
#        179980
#        192025
#        204972
#        216287
#        229230
#        242857
#        259257
#
# Disc length: 3618 seconds
#
# Revision: 3
# Processed by: cddbd v1.5.2PL0 Copyright (c) Steve Scherf et al.
# Submitted via: ExactAudioCopy v0.99pb5
#
DISCID=2f0e2013
DTITLE=Anne Murray - Her Greatest Hits And Finest Performances - CD 2
DYEAR=1990
DGENRE=Country
TTITLE0=Killing me softly with his song
TTITLE1=Where do you go when you dream
TTITLE2=Lucky me
TTITLE3=Take good care of my heart
TTITLE4=I say a little prayer and By the time I get to Phoenix (with Gle
TTITLE4=n Campbell)
TTITLE5=Our love
TTITLE6=You set my dreams to music
TTITLE7=The French waltz
TTITLE8=I'm happy just to dance with you
TTITLE9=Cotton Jenny
TTITLE10=Song for the Mira
TTITLE11=Sing high, sing low
TTITLE12=That'll keep me dreaming
TTITLE13=Together
TTITLE14=Part-time love
TTITLE15=He thinks I still care
TTITLE16=Beautiful
TTITLE17=What's forever for
TTITLE18=They don't call it magic for nothing
EXTD=
EXTT0=
EXTT1=
EXTT2=
EXTT3=
EXTT4=with Glen Campbell\n
EXTT5=
EXTT6=
EXTT7=
EXTT8=
EXTT9=
EXTT10=
EXTT11=
EXTT12=
EXTT13=
EXTT14=
EXTT15=
EXTT16=
EXTT17=
EXTT18=
PLAYORDER=
